<svg xmlns="http://www.w3.org/2000/svg" xmlns:xlink="http://www.w3.org/1999/xlink" width="53" height="60" version="1.1" viewBox="0 0 53 60"><title>css3-color</title><desc>Created with Sketch.</desc><g id="Page-1" fill="none" fill-rule="evenodd" stroke="none" stroke-width="1"><g id="css3-color"><g id="Group"><path id="Shape" fill="#0A71B9" d="M0,0 L52.65,0 L47.95,53.8 L26.3,59.7 L4.7,53.8 L0,0 Z"/><path id="Shape" fill="#28A7DE" d="M26.3,4.45 L48.25,4.45 L44.05,50.3 L26.3,55.4 L26.3,4.45 Z"/><path id="Shape" fill="#EBEBEB" d="M39.9,11.1 L9.85,11.1 L10.5,17.65 L35.6,17.65 L34.8,24.25 L11.1,24.25 L11.7,30.7 L34.45,30.7 L33.6,39.6 L26.2,41.4 L18.95,39.6 L18.55,34.3 L12.05,34.3 L13.05,44.95 L26.5,48.6 L39.9,44.95 L43.05,11.1 L39.9,11.1 Z"/><g id="Shape"><path d="M8.8,13.25 L9.6,6.65 L0.45,6.65 L0.45,13.25 L8.8,13.25 Z" transform="translate(26.000000, 11.000000)"/><path d="M7.6,28.6 L8.45,19.7 L0.45,19.7 L0.45,30.3 L7.6,28.6 Z" transform="translate(26.000000, 11.000000)"/><path fill="#FFF" d="M13.85,0.1 L0.3,0.1 L0.3,6.65 L9.55,6.65 L8.75,13.25 L0.3,13.25 L0.3,19.7 L8.4,19.7 L7.55,28.6 L0.3,30.3 L0.3,37.6 L0.4,37.6 L13.85,33.95 L17.05,0.1 L13.85,0.1 Z" transform="translate(26.000000, 11.000000)"/></g></g></g></g></svg>